<svg width="75" height="75" viewBox="0 0 75 75" fill="none" xmlns="http://www.w3.org/2000/svg">
<path fill-rule="evenodd" clip-rule="evenodd" d="M37.5 74C57.6584 74 74 57.6584 74 37.5C74 17.3416 57.6584 1 37.5 1C17.3416 1 1 17.3416 1 37.5C1 57.6584 17.3416 74 37.5 74ZM37.5 75C58.2107 75 75 58.2107 75 37.5C75 16.7893 58.2107 0 37.5 0C16.7893 0 0 16.7893 0 37.5C0 58.2107 16.7893 75 37.5 75Z" fill="black"/>
<path d="M54.6561 38.3738V34.6566C54.6561 34.0094 54.1314 33.4847 53.4842 33.4847C51.0633 33.4847 48.8063 33.689 46.6738 34.1062C45.4308 32.9058 43.9154 32.0349 42.2744 31.5589C44.0638 30.0528 45.203 27.7979 45.203 25.2816C45.203 20.7153 41.5231 17.0004 36.9999 17.0004C32.4767 17.0004 28.7968 20.7153 28.7968 25.2816C28.7968 27.7979 29.936 30.0528 31.7254 31.5588C30.0844 32.0349 28.569 32.9058 27.326 34.1061C25.1936 33.689 22.9366 33.4846 20.5156 33.4846C19.8684 33.4846 19.3437 34.0093 19.3437 34.6565V38.3737C17.9798 38.8574 17 40.16 17 41.6877V44.0315C17 45.5592 17.9798 46.8618 19.3437 47.3455V51.0627C19.3437 51.7099 19.8684 52.2346 20.5156 52.2346C26.6429 52.2346 31.6743 53.6864 36.35 56.8034C36.7418 57.0645 37.2579 57.0651 37.65 56.8034C42.3257 53.6864 47.3571 52.2346 53.4844 52.2346C54.1316 52.2346 54.6563 51.7099 54.6563 51.0627V47.3455C56.0202 46.8618 57 45.5592 57 44.0315V41.6877C56.9998 40.1601 56.0201 38.8575 54.6561 38.3738ZM31.1405 25.2816C31.1405 22.0076 33.769 19.3441 36.9999 19.3441C40.2307 19.3441 42.8592 22.0076 42.8592 25.2816C42.8592 28.5125 40.2307 31.141 36.9999 31.141C33.769 31.141 31.1405 28.5125 31.1405 25.2816ZM20.5155 45.2034C19.8694 45.2034 19.3437 44.6777 19.3437 44.0316V41.6878C19.3437 41.0416 19.8694 40.5159 20.5155 40.5159C21.1617 40.5159 21.6874 41.0416 21.6874 41.6878V44.0316C21.6874 44.6777 21.1617 45.2034 20.5155 45.2034ZM35.828 53.7257C31.5739 51.2928 27.0088 50.0632 21.6874 49.9078V47.3456C23.0514 46.8619 24.0312 45.5593 24.0312 44.0316V41.6878C24.0312 40.1601 23.0514 38.8575 21.6874 38.3738V35.845C27.1937 36.0031 31.6197 37.2997 35.828 39.9791V53.7257ZM36.9999 37.9487C34.8369 36.5839 32.5855 35.5448 30.1821 34.8146C31.5027 33.9563 33.0573 33.4847 34.6561 33.4847H39.3436C40.9425 33.4847 42.4971 33.9563 43.8177 34.8146C41.4142 35.5448 39.1628 36.5839 36.9999 37.9487ZM52.3124 49.9078C46.991 50.0632 42.4258 51.2931 38.1718 53.7258V39.98C42.3801 37.3004 46.8058 36.003 52.3124 35.845V38.3738C50.9484 38.8575 49.9686 40.1601 49.9686 41.6878V44.0316C49.9686 45.5593 50.9484 46.8619 52.3124 47.3456V49.9078ZM54.6561 44.0316C54.6561 44.6777 54.1304 45.2034 53.4842 45.2034C52.8381 45.2034 52.3124 44.6777 52.3124 44.0316V41.6878C52.3124 41.0416 52.8381 40.5159 53.4842 40.5159C54.1304 40.5159 54.6561 41.0416 54.6561 41.6878V44.0316Z" fill="black"/>
</svg>
