<svg width="75" height="75" viewBox="0 0 75 75" fill="none" xmlns="http://www.w3.org/2000/svg">
<path fill-rule="evenodd" clip-rule="evenodd" d="M37.5 74C57.6584 74 74 57.6584 74 37.5C74 17.3416 57.6584 1 37.5 1C17.3416 1 1 17.3416 1 37.5C1 57.6584 17.3416 74 37.5 74ZM37.5 75C58.2107 75 75 58.2107 75 37.5C75 16.7893 58.2107 0 37.5 0C16.7893 0 0 16.7893 0 37.5C0 58.2107 16.7893 75 37.5 75Z" fill="black"/>
<path d="M38 17C30.2459 17 23.9375 23.3084 23.9375 31.0625C23.9375 33.6823 24.6632 36.2391 26.0366 38.4572L37.1995 56.446C37.4134 56.7906 37.7901 57 38.1952 57C38.1984 57 38.2014 57 38.2045 57C38.6132 56.9968 38.9907 56.7809 39.2006 56.4303L50.079 38.2672C51.3766 36.0959 52.0625 33.6046 52.0625 31.0625C52.0625 23.3084 45.7541 17 38 17ZM48.0677 37.0639L38.1775 53.577L28.0287 37.2223C26.8855 35.3761 26.2656 33.2461 26.2656 31.0625C26.2656 24.6008 31.5383 19.3281 38 19.3281C44.4617 19.3281 49.7266 24.6008 49.7266 31.0625C49.7266 33.1813 49.1476 35.2569 48.0677 37.0639Z" fill="black"/>
<path d="M38 24.0312C34.123 24.0312 30.9688 27.1855 30.9688 31.0625C30.9688 34.9148 34.0716 38.0938 38 38.0938C41.9768 38.0938 45.0312 34.8724 45.0312 31.0625C45.0312 27.1855 41.877 24.0312 38 24.0312ZM38 35.7656C35.4018 35.7656 33.2969 33.6537 33.2969 31.0625C33.2969 28.4778 35.4153 26.3594 38 26.3594C40.5847 26.3594 42.6953 28.4778 42.6953 31.0625C42.6953 33.6159 40.6394 35.7656 38 35.7656Z" fill="black"/>
</svg>
