<svg width="75" height="75" viewBox="0 0 75 75" fill="none" xmlns="http://www.w3.org/2000/svg">
<path fill-rule="evenodd" clip-rule="evenodd" d="M37.5 74C57.6584 74 74 57.6584 74 37.5C74 17.3416 57.6584 1 37.5 1C17.3416 1 1 17.3416 1 37.5C1 57.6584 17.3416 74 37.5 74ZM37.5 75C58.2107 75 75 58.2107 75 37.5C75 16.7893 58.2107 0 37.5 0C16.7893 0 0 16.7893 0 37.5C0 58.2107 16.7893 75 37.5 75Z" fill="black"/>
<g clip-path="url(#clip0)">
<path d="M54.97 25.4853C54.5803 25.4969 54.2104 25.6598 53.9387 25.9394L30.9992 48.8789L20.0597 37.9394C19.9215 37.7957 19.7559 37.6811 19.5728 37.6022C19.3897 37.5233 19.1927 37.4816 18.9933 37.4797C18.7939 37.4778 18.5961 37.5157 18.4115 37.5911C18.227 37.6666 18.0593 37.7781 17.9183 37.919C17.7773 38.06 17.6658 38.2277 17.5904 38.4123C17.5149 38.5969 17.4771 38.7947 17.4789 38.9941C17.4808 39.1934 17.5225 39.3905 17.6014 39.5736C17.6803 39.7567 17.7949 39.9222 17.9386 40.0605L29.9386 52.0605C30.2199 52.3417 30.6014 52.4997 30.9992 52.4997C31.3969 52.4997 31.7784 52.3417 32.0597 52.0605L56.0597 28.0605C56.2765 27.8498 56.4246 27.5786 56.4845 27.2823C56.5444 26.986 56.5135 26.6785 56.3957 26.4002C56.2778 26.1218 56.0787 25.8855 55.8243 25.7222C55.5699 25.559 55.2721 25.4764 54.9699 25.4853L54.97 25.4853Z" fill="black"/>
</g>
<defs>
<clipPath id="clip0">
<rect width="48" height="60" fill="white" transform="translate(13 15)"/>
</clipPath>
</defs>
</svg>
